<svg xmlns="http://www.w3.org/2000/svg" viewBox="0 0 200 200">
  <rect width="200" height="200" fill="#F7E7EE"/>
  <path d="M 52 200 C 52 152 70 126 100 126 C 130 126 148 152 148 200 Z" fill="#F6C9A0"/>
  <path d="M 56 200 L 56 162 Q 100 172 144 162 L 144 200 Z" fill="#EC4899"/>
       <rect x="75" y="132" width="8" height="32" rx="4" fill="#EC4899"/>
       <rect x="117" y="132" width="8" height="32" rx="4" fill="#EC4899"/>
  <path d="M 84 140 Q 100 148 116 140" stroke="#E0A97E" stroke-width="2" fill="none" stroke-linecap="round" opacity="0.45"/>
  <rect x="88" y="92" width="24" height="30" rx="9" fill="#F6C9A0"/>
  <rect x="88" y="92" width="24" height="12" rx="6" fill="#E0A97E" opacity="0.55"/>
  <circle cx="73" cy="72" r="5.5" fill="#F6C9A0"/>
  <circle cx="127" cy="72" r="5.5" fill="#F6C9A0"/>
  <ellipse cx="100" cy="68" rx="27" ry="30" fill="#F6C9A0"/>
  <path d="M 73 66 C 73 38 127 38 127 66 C 122 52 112 46 100 46 C 88 46 78 52 73 66 Z" fill="#D9A441"/>
     <circle cx="100" cy="36" r="9" fill="#D9A441"/>
  <path d="M 84 57 Q 89 54 94 57" stroke="#2E2118" stroke-width="2.6" fill="none" stroke-linecap="round"/>
  <path d="M 106 57 Q 111 54 116 57" stroke="#2E2118" stroke-width="2.6" fill="none" stroke-linecap="round"/>
  <circle cx="88.5" cy="66" r="2.7" fill="#2E2118"/>
  <circle cx="111.5" cy="66" r="2.7" fill="#2E2118"/>
  <path d="M 100 69 L 98 76 L 102 76" stroke="#E0A97E" stroke-width="1.8" fill="none" stroke-linecap="round" stroke-linejoin="round"/>
  <path d="M 93 83 Q 100 87 107 83" stroke="#2E2118" stroke-width="2.4" fill="none" stroke-linecap="round"/>
</svg>
